<svg height="480pt" viewBox="0 0 480 480.00217" width="480pt" xmlns="http://www.w3.org/2000/svg" xmlns:xlink="http://www.w3.org/1999/xlink"><linearGradient id="a"><stop offset="0" stop-color="#e93e3a"/><stop offset=".35" stop-color="#ed683c"/><stop offset=".7" stop-color="#f3903f"/><stop offset="1" stop-color="#fdc70c"/></linearGradient><linearGradient id="b" gradientUnits="userSpaceOnUse" x1="239.669947" x2="239.669947" xlink:href="#a" y1="498.690175" y2="-25.205825"/><linearGradient id="c" gradientUnits="userSpaceOnUse" x1="367.669947" x2="367.669947" xlink:href="#a" y1="498.690175" y2="-25.205825"/><linearGradient id="d" gradientUnits="userSpaceOnUse" x1="335.669947" x2="335.669947" xlink:href="#a" y1="498.690175" y2="-25.205825"/><linearGradient id="e" gradientUnits="userSpaceOnUse" x1="423.669947" x2="423.669947" xlink:href="#a" y1="498.690175" y2="-25.205825"/><linearGradient id="f" gradientUnits="userSpaceOnUse" x1="375.669947" x2="375.669947" xlink:href="#a" y1="498.690175" y2="-25.205825"/><linearGradient id="g" gradientUnits="userSpaceOnUse" x1="103.669947" x2="103.669947" xlink:href="#a" y1="498.690175" y2="-25.205825"/><linearGradient id="h" gradientUnits="userSpaceOnUse" x1="39.669947" x2="39.669947" xlink:href="#a" y1="498.690175" y2="-25.205825"/><linearGradient id="i" gradientUnits="userSpaceOnUse" x1="439.669947" x2="439.669947" xlink:href="#a" y1="498.690175" y2="-25.205825"/><linearGradient id="j" gradientUnits="userSpaceOnUse" x1="199.669947" x2="199.669947" xlink:href="#a" y1="498.690175" y2="-25.205825"/><linearGradient id="k" gradientUnits="userSpaceOnUse" x1="279.669947" x2="279.669947" xlink:href="#a" y1="498.690175" y2="-25.205825"/><path d="m239.671875 160.003906c-66.277344 0-120 53.722656-120 120 0 66.273438 53.722656 120 120 120 66.273437 0 120-53.726562 120-120-.078125-66.246094-53.757813-119.925781-120-120zm0 224c-57.441406 0-104-46.5625-104-104s46.558594-104 104-104c57.4375 0 104 46.5625 104 104-.066406 57.410156-46.589844 103.933594-104 104zm0 0" fill="url(#b)"/><path d="m479.671875 160.003906c-.054687-41.265625-31.441406-75.742187-72.523437-79.65625-3.859376-27.691406-27.519532-48.308594-55.476563-48.34375-11.621094-.039062-22.957031 3.578125-32.410156 10.335938-21.011719-31.1875-58.308594-47.226563-95.398438-41.027344-37.089843 6.203125-67.140625 33.5-76.867187 69.824219-16.078125-9.023438-35.574219-9.535157-52.105469-1.363281-16.53125 8.171874-27.964844 23.972656-30.558594 42.230468-35.34375-.183594-64.148437 28.320313-64.332031 63.667969-.179688 35.34375 28.324219 64.148437 63.671875 64.332031h48v-16h-48c-26.511719 0-48-21.492187-48-48 0-26.511718 21.488281-48 48-48 2.304687.015625 4.605469.203125 6.886719.558594 2.347656.222656 4.679687-.578125 6.398437-2.191406 1.746094-1.65625 2.730469-3.960938 2.714844-6.367188-.023437-15.941406 9.429687-30.371094 24.058594-36.710937 14.625-6.335938 31.617187-3.375 43.234375 7.542969 2.195312 2.050781 5.359375 2.699218 8.183594 1.675781 2.828124-1.023438 4.84375-3.542969 5.21875-6.527344 4.335937-34.5625 30.554687-62.339844 64.808593-68.664063 34.257813-6.320312 68.664063 10.265626 85.054688 41 1.203125 2.257813 3.410156 3.800782 5.941406 4.160157 2.527344.355469 5.078125-.515625 6.859375-2.351563 11.351562-11.640625 28.621094-15.253906 43.6875-9.136718 15.066406 6.117187 24.929688 20.75 24.953125 37.011718 0 4.417969 3.578125 8 8 8 35.34375 0 64 28.652344 64 64 0 35.34375-28.65625 64-64 64h-32v16h32c44.160156-.050781 79.949219-35.839844 80-80zm0 0" fill="url(#b)"/><path d="m359.671875 80.003906h16v16h-16zm0 0" fill="url(#c)"/><path d="m327.671875 80.003906h16v16h-16zm0 0" fill="url(#d)"/><path d="m431.671875 160.003906c0 17.671875-14.328125 32-32 32v16c26.496094-.027344 47.972656-21.503906 48-48zm0 0" fill="url(#e)"/><path d="m367.671875 192.003906h16v16h-16zm0 0" fill="url(#f)"/><path d="m95.671875 400.003906h16v16h-16zm0 0" fill="url(#g)"/><path d="m95.671875 368.003906h16v16h-16zm0 0" fill="url(#g)"/><path d="m47.671875 272.003906h-16v16h-16v16h16v16h16v-16h16v-16h-16zm0 0" fill="url(#h)"/><path d="m31.671875 336.003906h16v16h-16zm0 0" fill="url(#h)"/><path d="m31.671875 368.003906h16v16h-16zm0 0" fill="url(#h)"/><path d="m367.671875 384.003906h16v16h-16zm0 0" fill="url(#f)"/><path d="m367.671875 352.003906h16v16h-16zm0 0" fill="url(#f)"/><path d="m367.671875 320.003906h16v16h-16zm0 0" fill="url(#f)"/><path d="m95.671875 336.003906h16v16h-16zm0 0" fill="url(#g)"/><g fill="url(#i)"><path d="m447.671875 264.003906h-16v16h-16v16h16v16h16v-16h16v-16h-16zm0 0"/><path d="m431.671875 328.003906h16v16h-16zm0 0"/><path d="m431.671875 360.003906h16v16h-16zm0 0"/><path d="m431.671875 392.003906h16v16h-16zm0 0"/></g><path d="m191.671875 408.003906h16v32h-16zm0 0" fill="url(#j)"/><path d="m191.671875 456.003906h16v16h-16zm0 0" fill="url(#j)"/><path d="m271.671875 416.003906h16v32h-16zm0 0" fill="url(#k)"/><path d="m271.671875 464.003906h16v16h-16zm0 0" fill="url(#k)"/><path d="m245.324219 202.347656c-3.121094-3.125-8.1875-3.125-11.308594 0l-56 56c-2.289063 2.285156-2.972656 5.726563-1.734375 8.714844s4.152344 4.9375 7.390625 4.941406h24v80c0 4.417969 3.578125 8 8 8h48c4.417969 0 8-3.582031 8-8v-80h24c3.234375-.003906 6.148437-1.953125 7.386719-4.941406 1.238281-2.988281.554687-6.429688-1.734375-8.714844zm18.347656 53.65625c-4.421875 0-8 3.578125-8 8v80h-32v-80c0-4.421875-3.582031-8-8-8h-12.691406l36.691406-36.691406 36.6875 36.691406zm0 0" fill="url(#b)"/><path d="m103.671875 432.003906c-13.257813 0-24 10.742188-24 24 0 13.253906 10.742187 24 24 24 13.253906 0 24-10.746094 24-24 0-13.257812-10.746094-24-24-24zm0 32c-4.421875 0-8-3.582031-8-8 0-4.421875 3.578125-8 8-8 4.417969 0 8 3.578125 8 8 0 4.417969-3.582031 8-8 8zm0 0" fill="url(#g)"/><path d="m375.671875 416.003906c-13.257813 0-24 10.742188-24 24 0 13.253906 10.742187 24 24 24 13.253906 0 24-10.746094 24-24 0-13.257812-10.746094-24-24-24zm0 32c-4.421875 0-8-3.582031-8-8 0-4.421875 3.578125-8 8-8 4.417969 0 8 3.578125 8 8 0 4.417969-3.582031 8-8 8zm0 0" fill="url(#f)"/></svg>